<?xml version="1.0" encoding="utf-8"?>
<!-- Generator: Adobe Illustrator 16.0.0, SVG Export Plug-In . SVG Version: 6.00 Build 0)  -->
<!DOCTYPE svg PUBLIC "-//W3C//DTD SVG 1.1//EN" "http://www.w3.org/Graphics/SVG/1.1/DTD/svg11.dtd">
<svg version="1.1" id="Layer_1" xmlns="http://www.w3.org/2000/svg" xmlns:xlink="http://www.w3.org/1999/xlink" x="0px" y="0px"
	 width="250px" height="216.51px" viewBox="0 0 250 216.51" enable-background="new 0 0 250 216.51" xml:space="preserve">
<g id="XMLID_1_">
	<g>
		<polygon fill="#FFFFFF" points="187.5,0 250,108.25 190,212.17 67.5,0 		"/>
		<polygon points="67.5,0 190,212.17 187.5,216.5 182.5,216.5 60,4.33 62.5,0 		"/>
		<polygon fill="#FFFFFF" points="60,4.33 182.5,216.5 62.5,216.5 0,108.25 		"/>
	</g>
	<g>
		<polygon fill="none" stroke="#231F20" stroke-miterlimit="10" points="182.5,216.5 62.5,216.5 0,108.25 60,4.33 62.5,0 67.5,0 
			187.5,0 250,108.25 190,212.17 187.5,216.5 		"/>
		<line fill="none" stroke="#231F20" stroke-miterlimit="10" x1="60" y1="4.33" x2="182.5" y2="216.5"/>
		<line fill="none" stroke="#231F20" stroke-miterlimit="10" x1="67.5" y1="0" x2="190" y2="212.17"/>
	</g>
</g>
</svg>
