<?xml version="1.0" encoding="utf-8"?>
<!-- Generator: Adobe Illustrator 16.0.0, SVG Export Plug-In . SVG Version: 6.00 Build 0)  -->
<!DOCTYPE svg PUBLIC "-//W3C//DTD SVG 1.1//EN" "http://www.w3.org/Graphics/SVG/1.1/DTD/svg11.dtd">
<svg version="1.1" id="Layer_1" xmlns="http://www.w3.org/2000/svg" xmlns:xlink="http://www.w3.org/1999/xlink" x="0px" y="0px"
	 width="250px" height="216.51px" viewBox="0 0 250 216.51" enable-background="new 0 0 250 216.51" xml:space="preserve">
<g id="XMLID_1_">
	<g>
		<polygon fill="#FFFFFF" points="0,108.25 60,212.17 182.5,0 62.5,0 		"/>
		<polygon points="60,212.17 62.5,216.5 67.5,216.5 190,4.33 187.5,0 182.5,0 		"/>
		<polygon fill="#FFFFFF" points="67.5,216.5 187.5,216.5 250,108.25 190,4.33 		"/>
	</g>
	<g>
		<polygon fill="none" stroke="#231F20" stroke-miterlimit="10" points="67.5,216.5 62.5,216.5 60,212.17 0,108.25 62.5,0 182.5,0 
			187.5,0 190,4.33 250,108.25 187.5,216.5 		"/>
		<line fill="none" stroke="#231F20" stroke-miterlimit="10" x1="190" y1="4.33" x2="67.5" y2="216.5"/>
		<line fill="none" stroke="#231F20" stroke-miterlimit="10" x1="182.5" y1="0" x2="60" y2="212.17"/>
	</g>
</g>
</svg>
